Coordinates
version=1
nRows=22
nColumns=21
inDegrees=yes

Units are S.I. units (second, meters, Newtons, ...)
If the header above contains a line with 'inDegrees', this indicates whether rotational values are in degrees (yes) or radians (no).

endheader
time	sternoclavicular_r2	sternoclavicular_r3	unrotscap_r3	unrotscap_r2	acromioclavicular_r2	acromioclavicular_r3	acromioclavicular_r1	unrothum_r1	unrothum_r3	unrothum_r2	elv_angle	shoulder_elev	shoulder1_r2	shoulder_rot	elbow_flexion	pro_sup	deviation	flexion	wrist_hand_r1	wrist_hand_r3
      3.01507538	    -18.29158020	      7.74745006	     -7.74745006	     18.29158020	     -3.70367291	     29.93178167	     13.45412986	    -13.45412986	    -29.93178167	      3.70367291	    129.99956907	     75.58487273	   -129.99956907	     19.99562949	      0.00220924	      0.00000000	      0.00000000	     -0.00000000	     -0.00000000	      0.00000000
      3.03517588	    -18.33117655	      7.76422120	     -7.76422120	     18.33117655	     -3.71169037	     29.99657593	     13.48325444	    -13.48325444	    -29.99657593	      3.71169037	    129.99957068	     75.74849364	   -129.99957068	     19.99560852	      0.00220215	      0.00000000	      0.00000000	     -0.00000000	     -0.00000000	      0.00000000
      3.05527638	    -18.36973559	      7.78055299	     -7.78055299	     18.36973559	     -3.71949779	     30.05967276	     13.51161603	    -13.51161603	    -30.05967276	      3.71949779	    129.99957222	     75.90782817	   -129.99957222	     19.99582858	      0.00219557	      0.00000000	      0.00000000	     -0.00000000	     -0.00000000	      0.00000000
      3.07537688	    -18.40722648	      7.79643236	     -7.79643236	     18.40722648	     -3.72708893	     30.12102170	     13.53919196	    -13.53919196	    -30.12102170	      3.72708893	    129.99957371	     76.06274884	   -129.99957371	     19.99576208	      0.00218886	      0.00000000	      0.00000000	     -0.00000000	     -0.00000000	      0.00000000
      3.09547739	    -18.44365675	      7.81186251	     -7.81186251	     18.44365675	     -3.73446532	     30.18063509	     13.56598776	    -13.56598776	    -30.18063509	      3.73446532	    129.99957515	     76.21328684	   -129.99957515	     19.99574728	      0.00218245	      0.00000000	      0.00000000	     -0.00000000	     -0.00000000	      0.00000000
      3.11557789	    -18.47901530	      7.82683872	     -7.82683872	     18.47901530	     -3.74162471	     30.23849474	     13.59199528	    -13.59199528	    -30.23849474	      3.74162471	    129.99957654	     76.35939622	   -129.99957654	     19.99570538	      0.00217622	      0.00000000	      0.00000000	     -0.00000000	     -0.00000000	      0.00000000
      3.13567839	    -18.51329898	      7.84135967	     -7.84135967	     18.51329898	     -3.74856645	     30.29459551	     13.61721219	    -13.61721219	    -30.29459551	      3.74856645	    129.99957788	     76.50106401	   -129.99957788	     19.99567917	      0.00217023	      0.00000000	      0.00000000	     -0.00000000	     -0.00000000	      0.00000000
      3.15577889	    -18.54650197	      7.85542289	     -7.85542289	     18.54650197	     -3.75528938	     30.34892785	     13.64163420	    -13.64163420	    -30.34892785	      3.75528938	    129.99957916	     76.63826611	   -129.99957916	     19.99564665	      0.00216444	      0.00000000	      0.00000000	     -0.00000000	     -0.00000000	      0.00000000
      3.17587940	    -18.57862152	      7.86902721	     -7.86902721	     18.57862152	     -3.76179294	     30.40148730	     13.66525931	    -13.66525931	    -30.40148730	      3.76179294	    129.99958040	     76.77099122	   -129.99958040	     19.99563022	      0.00215890	      0.00000000	      0.00000000	     -0.00000000	     -0.00000000	      0.00000000
      3.19597990	    -18.60965411	      7.88217115	     -7.88217115	     18.60965411	     -3.76807641	     30.45226808	     13.68808492	    -13.68808492	    -30.45226808	      3.76807641	    129.99958159	     76.89922479	   -129.99958159	     19.99557854	      0.00215351	      0.00000000	      0.00000000	     -0.00000000	     -0.00000000	      0.00000000
      3.21608040	    -18.63954964	      7.89483349	     -7.89483349	     18.63954964	     -3.77412964	     30.50118821	     13.71007419	    -13.71007419	    -30.50118821	      3.77412964	    129.99958135	     77.02275977	   -129.99958135	     19.99377644	      0.00215443	      0.00000000	      0.00000000	     -0.00000000	     -0.00000000	      0.00000000
      3.23618090	    -18.66841271	      7.90705852	     -7.90705852	     18.66841271	     -3.77997383	     30.54841885	     13.73130403	    -13.73130403	    -30.54841885	      3.77997383	    129.99958317	     77.14202836	   -129.99958317	     19.99405316	      0.00214586	      0.00000000	      0.00000000	     -0.00000000	     -0.00000000	      0.00000000
      3.25628141	    -18.69618589	      7.91882193	     -7.91882193	     18.69618589	     -3.78559733	     30.59386603	     13.75173223	    -13.75173223	    -30.59386603	      3.78559733	    129.99958405	     77.25679331	   -129.99958405	     19.99399352	      0.00214199	      0.00000000	      0.00000000	     -0.00000000	     -0.00000000	      0.00000000
      3.27638191	    -18.72287543	      7.93012636	     -7.93012636	     18.72287543	     -3.79100142	     30.63753999	     13.77136337	    -13.77136337	    -30.63753999	      3.79100142	    129.99958513	     77.36708045	   -129.99958513	     19.99402499	      0.00213705	      0.00000000	      0.00000000	     -0.00000000	     -0.00000000	      0.00000000
      3.29648241	    -18.74848682	      7.94097413	     -7.94097413	     18.74848682	     -3.79618721	     30.67944967	     13.79020148	    -13.79020148	    -30.67944967	      3.79618721	    129.99958658	     77.47291237	   -129.99958658	     19.99424413	      0.00213020	      0.00000000	      0.00000000	     -0.00000000	     -0.00000000	      0.00000000
      3.31658291	    -18.77301722	      7.95136405	     -7.95136405	     18.77301722	     -3.80115411	     30.71959047	     13.80824450	    -13.80824450	    -30.71959047	      3.80115411	    129.99958712	     77.57427744	   -129.99958712	     19.99409030	      0.00212798	      0.00000000	      0.00000000	     -0.00000000	     -0.00000000	      0.00000000
      3.33668342	    -18.79647989	      7.96130174	     -7.96130174	     18.79647989	     -3.80590483	     30.75798407	     13.82550216	    -13.82550216	    -30.75798407	      3.80590483	    129.99958845	     77.67123042	   -129.99958845	     19.99427852	      0.00212168	      0.00000000	      0.00000000	     -0.00000000	     -0.00000000	      0.00000000
      3.35678392	    -18.81888280	      7.97079055	     -7.97079055	     18.81888280	     -3.81044096	     30.79464351	     13.84198032	    -13.84198032	    -30.79464351	      3.81044096	    129.99958941	     77.76380423	   -129.99958941	     19.99448737	      0.00211729	      0.00000000	      0.00000000	     -0.00000000	     -0.00000000	      0.00000000
      3.37688442	    -18.84021814	      7.97982719	     -7.97982719	     18.84021814	     -3.81476093	     30.82955600	     13.85767325	    -13.85767325	    -30.82955600	      3.81476093	    129.99958982	     77.85196658	   -129.99958982	     19.99418346	      0.00211558	      0.00000000	      0.00000000	     -0.00000000	     -0.00000000	      0.00000000
      3.39698492	    -18.86050429	      7.98841945	     -7.98841945	     18.86050429	     -3.81886847	     30.86275163	     13.87259445	    -13.87259445	    -30.86275163	      3.81886847	    129.99958952	     77.93579345	   -129.99958952	     19.99358183	      0.00211737	      0.00000000	      0.00000000	     -0.00000000	     -0.00000000	      0.00000000
      3.41708543	    -18.87976907	      7.99657910	     -7.99657910	     18.87976907	     -3.82276919	     30.89427594	     13.88676441	    -13.88676441	    -30.89427594	      3.82276919	    129.99959097	     78.01539982	   -129.99959097	     19.99393545	      0.00211039	      0.00000000	      0.00000000	     -0.00000000	     -0.00000000	      0.00000000
      3.43718593	    -18.89800475	      8.00430288	     -8.00430288	     18.89800475	     -3.82646155	     30.92411624	     13.90017743	    -13.90017743	    -30.92411624	      3.82646155	    129.99959098	     78.09075370	   -129.99959098	     19.99368831	      0.00211067	      0.00000000	      0.00000000	     -0.00000000	     -0.00000000	      0.00000000
